<svg xmlns="http://www.w3.org/2000/svg" viewBox="0 0 1200 750" font-family="'Inter', 'Segoe UI', sans-serif">
  <rect width="1200" height="750" fill="#F9FAFB"/>
  <rect width="1200" height="64" fill="white"/>
  <rect x="0" y="64" width="1200" height="1" fill="#E5E7EB"/>
  <rect x="16" y="16" width="32" height="32" rx="8" fill="#4F46E5"/>
  <text x="24" y="38" font-size="14" fill="white" font-weight="700" text-anchor="middle">SF</text>
  <text x="60" y="39" font-size="20" fill="#111827" font-weight="700">StockFlow</text>
  <rect x="0" y="64" width="256" height="686" fill="white"/>
  <rect x="255" y="64" width="1" height="686" fill="#E5E7EB"/>
  <rect x="16" y="80" width="224" height="40" rx="8" fill="transparent"/>
  <text x="44" y="106" font-size="13" fill="#6B7280">🏠 Dashboard</text>
  <rect x="16" y="126" width="224" height="40" rx="8" fill="transparent"/>
  <text x="44" y="152" font-size="13" fill="#6B7280">📈 Trading</text>
  <rect x="16" y="172" width="224" height="40" rx="8" fill="transparent"/>
  <text x="44" y="198" font-size="13" fill="#6B7280">💼 Portfolio</text>
  <rect x="16" y="218" width="224" height="40" rx="8" fill="transparent"/>
  <text x="44" y="244" font-size="13" fill="#6B7280">⭐ Watchlist</text>
  <text x="24" y="290" font-size="11" fill="#9CA3AF" font-weight="600" letter-spacing="1">INVESTMENTS</text>
  <rect x="16" y="305" width="224" height="40" rx="8" fill="transparent"/>
  <text x="44" y="331" font-size="13" fill="#6B7280">💰 Mutual Funds</text>
  <rect x="16" y="351" width="224" height="40" rx="8" fill="#EEF2FF"/>
  <text x="44" y="377" font-size="13" fill="#4F46E5" font-weight="600">🚀 IPOs</text>
  <rect x="16" y="700" width="224" height="40" rx="8" fill="#F9FAFB"/>
  <text x="28" y="718" font-size="11" fill="#6B7280">Available Balance</text>
  <text x="28" y="734" font-size="14" fill="#111827" font-weight="700">₹1,80,000</text>
  <!-- Main -->
  <text x="280" y="100" font-size="22" fill="#111827" font-weight="700">IPOs</text>
  <text x="280" y="126" font-size="13" fill="#6B7280">Apply to upcoming and ongoing IPOs</text>
  <!-- Filter tabs -->
  <rect x="280" y="145" width="82" height="34" rx="8" fill="#4F46E5"/>
  <text x="300" y="167" font-size="12" fill="white" font-weight="500">All IPOs</text>
  <rect x="368" y="145" width="68" height="34" rx="8" fill="white" stroke="#D1D5DB" stroke-width="1"/>
  <text x="384" y="167" font-size="12" fill="#6B7280">Open</text>
  <rect x="442" y="145" width="88" height="34" rx="8" fill="white" stroke="#D1D5DB" stroke-width="1"/>
  <text x="458" y="167" font-size="12" fill="#6B7280">Upcoming</text>
  <rect x="536" y="145" width="68" height="34" rx="8" fill="white" stroke="#D1D5DB" stroke-width="1"/>
  <text x="552" y="167" font-size="12" fill="#6B7280">Closed</text>
  <rect x="610" y="145" width="68" height="34" rx="8" fill="white" stroke="#D1D5DB" stroke-width="1"/>
  <text x="626" y="167" font-size="12" fill="#6B7280">Listed</text>
  <!-- IPO Card 1 -->
  <rect x="280" y="195" width="445" height="240" rx="12" fill="white" filter="drop-shadow(0 1px 3px rgba(0,0,0,0.08))"/>
  <rect x="296" y="215" width="48" height="48" rx="12" fill="url(#g1)"/>
  <text x="320" y="245" font-size="18" fill="white" font-weight="700" text-anchor="middle">T</text>
  <text x="356" y="235" font-size="15" fill="#111827" font-weight="600">TechSolutions Ltd</text>
  <rect x="356" y="248" width="42" height="20" rx="6" fill="#D1FAE5"/>
  <text x="364" y="263" font-size="10" fill="#059669" font-weight="600">OPEN</text>
  <text x="450" y="235" font-size="12" fill="#6B7280">₹450 per share</text>
  <text x="620" y="235" font-size="12" fill="#6B7280">Lot: 30 shares</text>
  <!-- Grid info -->
  <line x1="296" y1="275" x2="709" y2="275" stroke="#F3F4F6" stroke-width="1"/>
  <text x="296" y="295" font-size="11" fill="#6B7280">Price Range</text>
  <text x="296" y="312" font-size="12" fill="#111827" font-weight="600">₹430 - ₹470</text>
  <text x="430" y="295" font-size="11" fill="#6B7280">Open Date</text>
  <text x="430" y="312" font-size="12" fill="#111827" font-weight="600">15-Jan-2025</text>
  <text x="550" y="295" font-size="11" fill="#6B7280">Close Date</text>
  <text x="550" y="312" font-size="12" fill="#111827" font-weight="600">19-Jan-2025</text>
  <!-- Subscription -->
  <rect x="296" y="328" width="413" height="50" rx="8" fill="#F9FAFB"/>
  <text x="312" y="348" font-size="11" fill="#6B7280" font-weight="500">Subscription Status</text>
  <text x="312" y="368" font-size="11" fill="#6B7280">Retail</text>
  <text x="372" y="368" font-size="11" fill="#059669" font-weight="600">3.45x</text>
  <text x="440" y="368" font-size="11" fill="#6B7280">QIB</text>
  <text x="478" y="368" font-size="11" fill="#059669" font-weight="600">2.15x</text>
  <text x="540" y="368" font-size="11" fill="#6B7280">NII</text>
  <text x="574" y="368" font-size="11" fill="#059669" font-weight="600">4.80x</text>
  <text x="640" y="368" font-size="11" fill="#6B7280">Total</text>
  <text x="680" y="368" font-size="11" fill="#059669" font-weight="600">3.25x</text>
  <rect x="296" y="390" width="413" height="36" rx="8" fill="#4F46E5"/>
  <text x="502" y="413" font-size="13" fill="white" font-weight="600" text-anchor="middle">Apply Now</text>
  <!-- IPO Card 2 -->
  <rect x="745" y="195" width="445" height="240" rx="12" fill="white" filter="drop-shadow(0 1px 3px rgba(0,0,0,0.08))"/>
  <rect x="761" y="215" width="48" height="48" rx="12" fill="url(#g2)"/>
  <text x="785" y="245" font-size="18" fill="white" font-weight="700" text-anchor="middle">G</text>
  <text x="821" y="235" font-size="15" fill="#111827" font-weight="600">GreenEnergy Corp</text>
  <rect x="821" y="248" width="42" height="20" rx="6" fill="#D1FAE5"/>
  <text x="829" y="263" font-size="10" fill="#059669" font-weight="600">OPEN</text>
  <text x="915" y="235" font-size="12" fill="#6B7280">₹320 per share</text>
  <text x="1085" y="235" font-size="12" fill="#6B7280">Lot: 45 shares</text>
  <line x1="761" y1="275" x2="1174" y2="275" stroke="#F3F4F6" stroke-width="1"/>
  <text x="761" y="295" font-size="11" fill="#6B7280">Price Range</text>
  <text x="761" y="312" font-size="12" fill="#111827" font-weight="600">₹300 - ₹340</text>
  <text x="895" y="295" font-size="11" fill="#6B7280">Open Date</text>
  <text x="895" y="312" font-size="12" fill="#111827" font-weight="600">10-Jan-2025</text>
  <text x="1015" y="295" font-size="11" fill="#6B7280">Close Date</text>
  <text x="1015" y="312" font-size="12" fill="#111827" font-weight="600">14-Jan-2025</text>
  <rect x="761" y="328" width="413" height="50" rx="8" fill="#F9FAFB"/>
  <text x="777" y="348" font-size="11" fill="#6B7280">Subscription: 2.55x</text>
  <rect x="761" y="390" width="413" height="36" rx="8" fill="#4F46E5"/>
  <text x="967" y="413" font-size="13" fill="white" font-weight="600" text-anchor="middle">Apply Now</text>
  <defs>
    <linearGradient id="g1" x1="0" y1="0" x2="1" y2="1"><stop offset="0%" stop-color="#6366F1"/><stop offset="100%" stop-color="#9333EA"/></linearGradient>
    <linearGradient id="g2" x1="0" y1="0" x2="1" y2="1"><stop offset="0%" stop-color="#10B981"/><stop offset="100%" stop-color="#059669"/></linearGradient>
  </defs>
</svg>
