<svg xmlns="http://www.w3.org/2000/svg" viewBox="0 0 1200 750" font-family="'Inter', 'Segoe UI', sans-serif">
  <rect width="1200" height="750" fill="#F9FAFB"/>
  <!-- Header -->
  <rect width="1200" height="64" fill="white"/>
  <rect x="0" y="64" width="1200" height="1" fill="#E5E7EB"/>
  <rect x="16" y="16" width="32" height="32" rx="8" fill="#4F46E5"/>
  <text x="24" y="38" font-size="14" fill="white" font-weight="700" text-anchor="middle">SF</text>
  <text x="60" y="39" font-size="20" fill="#111827" font-weight="700">StockFlow</text>
  <!-- Sidebar -->
  <rect x="0" y="64" width="256" height="686" fill="white"/>
  <rect x="255" y="64" width="1" height="686" fill="#E5E7EB"/>
  <rect x="16" y="80" width="224" height="40" rx="8" fill="transparent"/>
  <text x="44" y="106" font-size="13" fill="#6B7280">🏠 Dashboard</text>
  <rect x="16" y="126" width="224" height="40" rx="8" fill="#EEF2FF"/>
  <text x="44" y="152" font-size="13" fill="#4F46E5" font-weight="600">📈 Trading</text>
  <rect x="16" y="172" width="224" height="40" rx="8" fill="transparent"/>
  <text x="44" y="198" font-size="13" fill="#6B7280">💼 Portfolio</text>
  <rect x="16" y="218" width="224" height="40" rx="8" fill="transparent"/>
  <text x="44" y="244" font-size="13" fill="#6B7280">⭐ Watchlist</text>
  <text x="24" y="290" font-size="11" fill="#9CA3AF" font-weight="600" letter-spacing="1">INVESTMENTS</text>
  <rect x="16" y="305" width="224" height="40" rx="8" fill="transparent"/>
  <text x="44" y="331" font-size="13" fill="#6B7280">💰 Mutual Funds</text>
  <rect x="16" y="351" width="224" height="40" rx="8" fill="transparent"/>
  <text x="44" y="377" font-size="13" fill="#6B7280">🚀 IPOs</text>
  <rect x="16" y="700" width="224" height="40" rx="8" fill="#F9FAFB"/>
  <text x="28" y="718" font-size="11" fill="#6B7280">Available Balance</text>
  <text x="28" y="734" font-size="14" fill="#111827" font-weight="700">₹1,80,000</text>
  <!-- Main Content -->
  <text x="280" y="100" font-size="22" fill="#111827" font-weight="700">Trading</text>
  <text x="280" y="126" font-size="13" fill="#6B7280">Search and trade stocks</text>
  <!-- Search bar -->
  <rect x="280" y="145" width="610" height="44" rx="10" fill="white" stroke="#D1D5DB" stroke-width="1"/>
  <text x="300" y="171" font-size="13" fill="#9CA3AF">🔍 Search by symbol or company name...</text>
  <rect x="900" y="145" width="200" height="44" rx="10" fill="white" stroke="#D1D5DB" stroke-width="1"/>
  <text x="920" y="171" font-size="13" fill="#6B7280">All Sectors</text>
  <polygon points="1080,168 1085,161 1090,168" fill="#6B7280"/>
  <!-- Selected Stock Detail -->
  <rect x="280" y="205" width="910" height="170" rx="12" fill="white" filter="drop-shadow(0 1px 3px rgba(0,0,0,0.08))"/>
  <text x="296" y="234" font-size="20" fill="#111827" font-weight="700">RELIANCE</text>
  <circle cx="408" cy="228" r="12" fill="#FEF3C7"/>
  <text x="402" y="234" font-size="11" fill="#F59E0B">★</text>
  <text x="296" y="256" font-size="13" fill="#6B7280">Reliance Industries Ltd</text>
  <rect x="296" y="268" width="70" height="22" rx="6" fill="#EEF2FF"/>
  <text x="306" y="284" font-size="11" fill="#4F46E5" font-weight="500">Oil &amp; Gas</text>
  <text x="800" y="238" font-size="28" fill="#111827" font-weight="700">₹2,845.50</text>
  <text x="800" y="264" font-size="15" fill="#059669" font-weight="600">▲ +95.20 (+3.45%)</text>
  <!-- Stats grid -->
  <rect x="296" y="300" width="105" height="50" rx="6" fill="transparent"/>
  <text x="296" y="318" font-size="11" fill="#6B7280">Open</text>
  <text x="296" y="340" font-size="13" fill="#111827" font-weight="600">₹2,790.30</text>
  <rect x="416" y="300" width="105" height="50" rx="6" fill="transparent"/>
  <text x="416" y="318" font-size="11" fill="#6B7280">High</text>
  <text x="416" y="340" font-size="13" fill="#111827" font-weight="600">₹2,856.00</text>
  <rect x="536" y="300" width="105" height="50" rx="6" fill="transparent"/>
  <text x="536" y="318" font-size="11" fill="#6B7280">Low</text>
  <text x="536" y="340" font-size="13" fill="#111827" font-weight="600">₹2,774.80</text>
  <rect x="656" y="300" width="105" height="50" rx="6" fill="transparent"/>
  <text x="656" y="318" font-size="11" fill="#6B7280">Volume</text>
  <text x="656" y="340" font-size="13" fill="#111827" font-weight="600">12.5L</text>
  <rect x="776" y="300" width="105" height="50" rx="6" fill="transparent"/>
  <text x="776" y="318" font-size="11" fill="#6B7280">Mkt Cap</text>
  <text x="776" y="340" font-size="13" fill="#111827" font-weight="600">₹16.2L Cr</text>
  <rect x="896" y="300" width="105" height="50" rx="6" fill="transparent"/>
  <text x="896" y="318" font-size="11" fill="#6B7280">P/E</text>
  <text x="896" y="340" font-size="13" fill="#111827" font-weight="600">28.5</text>
  <rect x="1016" y="300" width="105" height="50" rx="6" fill="transparent"/>
  <text x="1016" y="318" font-size="11" fill="#6B7280">Prev Close</text>
  <text x="1016" y="340" font-size="13" fill="#111827" font-weight="600">₹2,750.30</text>
  <!-- Buy/Sell Card -->
  <rect x="280" y="395" width="420" height="260" rx="12" fill="white" filter="drop-shadow(0 1px 3px rgba(0,0,0,0.08))"/>
  <text x="296" y="424" font-size="16" fill="#111827" font-weight="600">Place Order</text>
  <rect x="296" y="438" width="195" height="38" rx="8" fill="#059669"/>
  <text x="394" y="463" font-size="13" fill="white" font-weight="600" text-anchor="middle">Buy</text>
  <rect x="496" y="438" width="195" height="38" rx="8" fill="#F3F4F6"/>
  <text x="594" y="463" font-size="13" fill="#6B7280" font-weight="500" text-anchor="middle">Sell</text>
  <text x="296" y="502" font-size="12" fill="#374151" font-weight="500">Order Type</text>
  <rect x="296" y="508" width="180" height="36" rx="8" fill="white" stroke="#D1D5DB" stroke-width="1"/>
  <text x="312" y="530" font-size="12" fill="#111827">Market</text>
  <polygon points="460,528 464,522 468,528" fill="#6B7280"/>
  <text x="498" y="502" font-size="12" fill="#374151" font-weight="500">Quantity</text>
  <rect x="498" y="508" width="180" height="36" rx="8" fill="white" stroke="#D1D5DB" stroke-width="1"/>
  <text x="514" y="530" font-size="12" fill="#9CA3AF">0</text>
  <text x="296" y="566" font-size="12" fill="#374151" font-weight="500">Validity</text>
  <rect x="296" y="572" width="180" height="36" rx="8" fill="white" stroke="#D1D5DB" stroke-width="1"/>
  <text x="312" y="594" font-size="12" fill="#111827">Day</text>
  <polygon points="460,592 464,586 468,592" fill="#6B7280"/>
  <!-- Estimate box -->
  <rect x="296" y="618" width="390" height="36" rx="8" fill="#F9FAFB"/>
  <text x="312" y="641" font-size="11" fill="#6B7280">Total Estimate: ₹0.00</text>
  <!-- Recent Orders -->
  <rect x="720" y="395" width="470" height="260" rx="12" fill="white" filter="drop-shadow(0 1px 3px rgba(0,0,0,0.08))"/>
  <text x="736" y="424" font-size="16" fill="#111827" font-weight="600">Recent Orders</text>
  <rect x="736" y="440" width="438" height="42" rx="8" fill="#F9FAFB"/>
  <rect x="736" y="440" width="52" height="22" rx="6" fill="#D1FAE5"/>
  <text x="746" y="455" font-size="11" fill="#059669" font-weight="600">BUY</text>
  <text x="800" y="455" font-size="13" fill="#111827" font-weight="600">RELIANCE</text>
  <text x="800" y="470" font-size="11" fill="#6B7280">50 shares @ ₹2,790.30</text>
  <rect x="1072" y="442" width="60" height="22" rx="6" fill="#D1FAE5"/>
  <text x="1088" y="457" font-size="11" fill="#059669" font-weight="600">EXECUTED</text>
  <rect x="736" y="492" width="438" height="42" rx="8" fill="#F9FAFB"/>
  <rect x="736" y="492" width="54" height="22" rx="6" fill="#FEE2E2"/>
  <text x="746" y="507" font-size="11" fill="#DC2626" font-weight="600">SELL</text>
  <text x="802" y="507" font-size="13" fill="#111827" font-weight="600">TCS</text>
  <text x="802" y="522" font-size="11" fill="#6B7280">10 shares @ ₹3,920.00</text>
  <rect x="1072" y="494" width="60" height="22" rx="6" fill="#D1FAE5"/>
  <text x="1088" y="509" font-size="11" fill="#059669" font-weight="600">EXECUTED</text>
</svg>
